<svg xmlns="http://www.w3.org/2000/svg" xmlns:xlink="http://www.w3.org/1999/xlink" width="248" height="248" viewBox="0 0 248 248">
    <defs>
        <path id="kdi20n8pxa" d="M0 0H248V248H0z"/>
        <path id="r448ccpdzc" d="M0.377 0.078L246.416 0.078 246.416 124.507 0.377 124.507z"/>
        <path id="837xxsjtse" d="M0.362 0.541L70.83 0.541 70.83 65.353 0.362 65.353z"/>
    </defs>
    <g fill="none" fill-rule="evenodd">
        <mask id="t43yv5fuwb" fill="#fff">
            <use xlink:href="#kdi20n8pxa"/>
        </mask>
        <g mask="url(#t43yv5fuwb)">
            <g>
                <path fill="#FFF" d="M91.35 150.331C94.534 171.823 106.998 184 124.863 184s31.04-8.468 35.42-15.875c4.38-7.407 11.014-45.182-21.184-50.998-32.198-5.815-50.932 11.712-47.749 33.204z" transform="translate(1 18)"/>
                <g>
                    <g transform="translate(1 18) translate(0 68.527)">
                        <mask id="qn3uhrchqd" fill="#fff">
                            <use xlink:href="#r448ccpdzc"/>
                        </mask>
                        <path fill="#000" d="M124.782 113.233c-16.82-1.207-32.43-15.035-30.362-35.005.466-4.5 3.695-12.575 11.58-18.84 8.09-6.43 18.796-9.253 29.916-6.605 15.34 3.653 26.693 18.09 23.39 34.5-3.337 16.585-18.365 27.11-34.524 25.95zm121.635-44.327c-4.185 1.51-8.772 2.07-13.379 1.64-13.683-1.277-24.31-12.037-26.405-25.925-1.633-10.816 1.976-20.88 8.99-27.963 8.954-9.043 22.878-9.92 30.794-7.29V1.166c-11.034-3.044-24.274 1.046-28.118 3.163-12.185 5.93-20.548 19.301-22.026 33.284-.493 4.667-.192 9.318.795 13.774-10.186 3.451-19.845 8.136-28.983 13.905-4.063-9.398-12.002-16.616-20.978-20.94-16.768-8.08-37.04-2.956-49.755 10.089-5.306 5.444-8.6 11.62-9.827 14.005l-.15.3c-13.223-17.39-32.258-52.815-53.613-61.14C25.83 4.515 9.697 1.73 3.745 12.226c-.85 1.498-.631 3.254.157 4.6 1.197 2.047 3.712 3.149 5.79.961 2.905-3.059 8.18-3 11.74-1.928C42.596 22.231 72.735 68.446 81.15 78.5c.51.61 2.47 2.705 2.64 2.997-.7 16.887 9.94 27.236 11.073 28.43 5.362 5.645 12.238 10.01 19.696 12.328 10.594 3.294 22.506 3.18 32.64-1.693 9.367-4.502 16.604-12.788 20.702-22.45 3.28-7.73 4.234-16.33 2.687-24.529 9.565-5.242 19.63-9.208 30.117-12.003 4.802 9.498 13.049 17.07 23.504 20.278 7.255 2.226 14.977 2.414 22.208.681V68.906z" mask="url(#qn3uhrchqd)"/>
                    </g>
                    <g transform="translate(1 18) translate(175.585)">
                        <mask id="eqd48e7z3f" fill="#fff">
                            <use xlink:href="#837xxsjtse"/>
                        </mask>
                        <path fill="#000" d="M5.154 14.196c6.04-18.204 37.907 16.242 43.449 22.129 8.38 8.902 15.805 18.63 22.228 29.028V47.289C68.41 41.47 44.327 5.894 18.147.84 10.047-.727-1.374 3.916.584 14.021c.467 2.414 3.843 2.363 4.57.174" mask="url(#eqd48e7z3f)"/>
                    </g>
                </g>
            </g>
        </g>
    </g>
</svg>
