<svg xmlns="http://www.w3.org/2000/svg" xmlns:xlink="http://www.w3.org/1999/xlink" width="248" height="248" viewBox="0 0 248 248">
    <defs>
        <path id="9p0cuzgd8a" d="M0 0H248V248H0z"/>
        <path id="sgpdtx4o7c" d="M0 0L168 0 168 216 0 216z"/>
    </defs>
    <g fill="none" fill-rule="evenodd">
        <mask id="hn2dntvelb" fill="#fff">
            <use xlink:href="#9p0cuzgd8a"/>
        </mask>
        <g mask="url(#hn2dntvelb)">
            <g transform="translate(80 16)">
                <mask id="8ilyaev3ud" fill="#fff">
                    <use xlink:href="#sgpdtx4o7c"/>
                </mask>
                <path fill="#000" d="M118.024 153.661l-.614 30.689c-.104 5.114-.26 10.23-.263 15.345 0 .954.005 1.908.007 2.862-2.646-1.509-5.54-2.645-8.352-3.873l-11.912-5.209-25.15-10.994-.221-.096c-.191-6.966-1.202-14.07-1.61-20.923-.55-9.308-1.16-18.597-1.355-27.922-.362-17.305.17-34.65 1.515-51.914 16.617 4.078 33.147 8.492 49.623 13.066-.823 19.655-1.274 39.3-1.668 58.97zm-91.967 9.237c.022-.298-2.4-17.825-3.68-26.2l-3.793-24.826c-2.184-14.29-4.489-28.552-6.89-42.807 17.97 3.237 35.793 7.104 53.514 11.376-1.76 17.888-2.506 35.814-2.155 53.78.176 9.077.474 18.198 1.333 27.24.574 6.042.992 12.511 2.092 18.722-13.428-5.869-26.856-11.712-40.421-17.285zM9.677 60.391C22.275 53.95 34.52 46.9 47.214 40.603c4.894-2.428 9.84-4.765 14.812-7.047 1.852 1.735 3.763 3.415 5.74 5.02 1.651 1.344 3.344 2.646 5.075 3.906-3.513-.563-7.08-.905-10.689-1.033-4.566-.161-10.24-.534-14.335 1.805-3.855 2.202-5.078 6.599-3.761 10.546 3.028 9.08 16.783 10.179 25.087 9.917 3.03-.096 6.154-.432 9.24-1.036-3.165 2.999-6.243 6.083-9.23 9.244-19.562-4.623-39.379-8.301-59.296-11.29-.059-.082-.115-.167-.178-.244zm42.174-49.609c-.43-3.065 1.57-5.139 4.812-5.19 2.738-.042 5.165 1.39 7.245 2.952 4.23 3.177 7.97 7.177 11.357 11.15-4.422 1.777-8.793 3.657-13.128 5.611-.355-.367-.72-.727-1.069-1.1-3.39-3.616-8.511-8.375-9.217-13.423zM91.239 46.53c-6.773-3.407-13.201-7.339-19.126-12.099-1.427-1.147-2.814-2.34-4.178-3.556 3.972-1.784 7.958-3.54 11.948-5.287 4.682 6.491 8.512 13.56 11.356 20.942zm-3.104-24.546c9.622 4.09 19.363 7.822 29.195 11.389-.478.307-.952.61-1.42.893-2.502 1.515-4.976 3.074-7.417 4.679-4.023 2.645-7.952 5.42-11.798 8.295-.01-.034-.01-.065-.021-.1-2.736-8.397-6.58-16.456-11.628-23.809 1.03-.448 2.06-.898 3.089-1.347zM73.453 56.796c-3.591.467-7.282.509-10.883.13-3.468-.363-8.814-.942-11.164-3.744-3.482-4.149 2.277-5.209 5.493-5.342 3.932-.163 7.888-.045 11.802.351 6.513.66 13.017 2.184 19.269 4.201-4.622 2.035-9.34 3.73-14.517 4.404zM168 179.336c-5.305 1.982-10.557 4.097-15.74 6.35-9.65 4.195-18.975 9.042-28.01 14.335.151-4.989.15-9.982.198-14.973l.296-31.387c.185-19.522.314-39.021.077-58.54.119-.055.237-.104.356-.17 10.574-5.886 21.382-11.38 32.428-16.417 3.44-1.57 6.912-3.082 10.395-4.566v-9.954c-4.878 2.093-9.718 4.266-14.512 6.527-10.814 5.1-21.389 10.64-31.731 16.56-15.436-5.362-31.14-9.919-47.024-13.833 5.33-5.328 10.936-10.38 16.752-15.222 1.48-.828 2.88-1.763 4.193-2.798.191.078.386.148.577.225 7.312 6.018 15.79 10.417 25.299 12.52 3.919.867 5.533-4.647 1.664-5.752-4.897-1.397-9.672-3.204-14.201-5.45 8.834 1.033 17.784 1.087 26.568-.235 3.153-.474 2.41-5.444-.752-5.3-11.21.511-22.196.407-33.158-1.302 3.257-2.438 6.582-4.794 9.977-7.058 2.43-1.62 4.893-3.196 7.388-4.727 1.422-.872 3.023-1.655 4.487-2.575 1.129.402 2.258.803 3.389 1.201 13.369 4.707 27.148 9.496 41.084 12.412v-7.271c-12.18-4.885-24.888-8.849-37.343-13-13.601-4.532-27.102-9.305-40.733-13.755-1.095-.357-2.099-.131-2.89.411-.455-.057-.944-.013-1.456.17-1.627.585-3.244 1.188-4.856 1.8-2.66-3.282-5.51-6.42-8.597-9.346C68.55 4.827 64.5 1.224 59.387.246c-3.969-.76-8.449.224-11.164 3.201-3.18 3.486-2.758 8.23-.936 12.216 1.997 4.373 5.467 8.196 8.714 11.778.148.163.304.319.453.481-4.394 2.065-8.759 4.198-13.093 6.398-13.535 6.87-27.143 14.308-39.244 23.312C3.54 58.06-.407 59.63.034 63.69c1.804 16.627 3.675 33.233 5.737 49.834l3.01 24.224c1.073 8.634 1.454 17.523 3.416 26.014.81 3.506 3.745 5.041 4.696 5.508 16.161 7.923 32.538 15.38 48.923 22.868l24.256 11.086 11.8 5.392c4.251 1.944 16.181 7.196 17.797 7.25.835.279 1.769.117 2.493-.474.31-.129.622-.275.936-.46 11.193-6.589 22.827-12.392 34.786-17.608 3.34-1.458 6.715-2.836 10.116-4.154v-13.835z" mask="url(#8ilyaev3ud)"/>
            </g>
        </g>
    </g>
</svg>
