<svg xmlns="http://www.w3.org/2000/svg" xmlns:xlink="http://www.w3.org/1999/xlink" width="368" height="298" viewBox="0 0 368 298">
    <defs>
        <path id="kqxfuaj1pa" d="M0.163 0.002L197.714 0.002 197.714 178.975 0.163 178.975z"/>
        <path id="st6ctq9w8c" d="M0 0.529L195.756 0.529 195.756 174.044 0 174.044z"/>
    </defs>
    <g fill="none" fill-rule="evenodd">
        <path fill="#00B3A9" d="M185.916 91.826c1.277-1.218 2.084-2.833 2.084-4.8 0-2.864-2.152-6.127-5.14-6.683-16.066-2.988-32.463-4.035-48.765-2.668l-.065.005c-1.03-.189-2.123-.093-3.12.281-3.07.314-6.151.797-8.869 1.908-1.266.049-2.514.588-3.347 1.604l-.064-.713c-.264-2.828-2.254-5.26-5.314-5.26-2.816 0-5.111 2.424-5.314 5.26-1.738 24.33 2.81 73.01 2.81 89.335 0 16.325-.117 20.236.905 30.172.804 7.813 11.496 8.394 12.92 1.104 1.02.86 2.219 1.602 3.645 2.19 4.166 1.72 9.057 1.822 13.526 1.983 4.155.15 8.319.042 12.46-.326 9.055-.805 17.863-2.63 26.406-5.714 3.33-1.202 5.867-3.94 5.857-7.614-.04-13.558-.128-27.118-.214-40.677.775-19.268.451-38.597-.198-57.833-.018-.552-.088-1.07-.203-1.554z" transform="translate(73 35.5)"/>
        <g>
            <g transform="translate(73 35.5) translate(31 .5) translate(1.677)">
                <mask id="lmay5ew1rb" fill="#fff">
                    <use xlink:href="#kqxfuaj1pa"/>
                </mask>
                <path fill="#000" d="M197.572 127.678c-.303-28.175-1.05-56.348-6.048-84.148-1.204-6.694-2.707-13.3-4.578-19.837-1.612-5.63-3.613-11.288-7.388-15.84C170.69-2.834 156.71.312 144.608.838c-28.633 1.246-57.264 2.508-85.904 3.579l-23.832.89c-4.064.152-8.127.235-12.193.315-3.57.07-7.328-.09-10.804.867C5.592 8.221 1.49 13.756.465 20.082c-1.24 7.641 1.511 14.199 5.206 20.69 1.78 3.126 6.562 1.018 5.708-2.42-2.01-8.092-6.134-22.415 6.16-23.695 12.903-1.342 25.997-1.497 38.948-2.12 25.86-1.246 51.724-2.346 77.592-3.433 6.461-.272 12.93-.665 19.397-.68 4.846-.011 10.787-.483 14.958 2.505 3.46 2.48 5.19 7.025 6.357 10.967 1.69 5.71 2.66 11.629 3.795 17.467.965 4.963 1.773 9.951 2.46 14.956-1.034-.104-2.14.072-3.355.176-2.603.222-5.206.446-7.81.67-5.215.446-10.415 1.046-15.62 1.616-2.997.328-3.16 4.893 0 4.834 5.396-.1 10.788-.18 16.179-.408l7.81-.331c1.436-.061 2.57-.06 3.576-.395 2.056 17.628 2.646 35.443 2.7 53.17.04 13.855-.65 27.706-.817 41.558-.065 5.459-.49 10.438-5.7 13.271-5.755 3.13-12.831 1.885-19.036 1.164-2.375-.276-4.42 2.241-4.42 4.447 0 2.574 2.032 4.245 4.42 4.447 6.724.57 13.57.85 20.171-.884 5.332-1.402 11.089-4.722 14.159-9.413 3.893-5.95 4.24-13.191 4.364-20.086.123-6.82-.022-13.658-.095-20.477" mask="url(#lmay5ew1rb)"/>
            </g>
            <path fill="#000" d="M35.46 18.642c-3.535-2.748-8.494-.475-9.651 3.622-.764 2.706.86 5.71 3.642 6.318.962.21 1.9.162 2.74-.102.705.085 1.421.032 2.095-.199 1.997-.684 3.59-2.655 3.532-4.843-.05-1.901-.856-3.63-2.357-4.796M56.433 20.04c-1.062-1.716-2.788-2.6-4.766-2.716-.156-.01-.316-.005-.477.01-.225-.038-.452-.075-.685-.089-2.112-.123-4.12 1.083-5.156 2.906-1.075 1.89-.967 4.388.168 6.226 1.332 2.158 3.724 3.182 6.182 2.85 2.574-.348 4.64-2.322 5.398-4.785.445-1.449.12-3.137-.664-4.403M72.35 18.589c-2.202-1.204-4.967-1.015-6.801.79-.746.735-1.255 1.672-1.515 2.684-.154.602-.202 1.248-.15 1.887-.003.017-.008.033-.01.05-.268 1.997.825 4.023 2.546 5.032 1.837 1.079 4.024 1.006 5.848-.062 1.808-1.058 2.95-3.14 2.994-5.225.046-2.063-1.094-4.162-2.913-5.156M36.958 151.766c-.734-2.351-2.835-3.302-5.142-2.937-2.94.465-4.05 2.886-5.47 5.183l-3.682 5.958c-1.38 2.232-2.756 4.459-4.104 6.704L6.02 151.755c-2.482-2.953-7.551.943-5.358 4.16l14.546 21.331c2.089 3.063 6.05 3.023 8.144 0 2.769-3.993 5.324-8.104 7.898-12.227l3.71-5.94c1.5-2.402 2.93-4.326 1.999-7.313" transform="translate(73 35.5) translate(31 .5)"/>
        </g>
        <g transform="translate(73 35.5) translate(0 34.5)">
            <path fill="#000" d="M64.819 59.362c-6.608 4.805-12.852 9.98-18.7 15.654-2.996-4.34-5.927-8.726-8.793-13.153-2.772-4.282-10.148.371-7.592 4.825 3.014 5.252 6.115 10.451 9.307 15.597-1.556 1.678-3.085 3.383-4.585 5.11-3.17 3.65-8.573 8.16-6.492 13.397.577 1.45 2.213 2.493 3.738 2.605 5.205.383 7.887-5.728 10.64-9.317.757-.99 1.529-1.97 2.306-2.945.21.325.419.652.63.977 1.975 3.046 3.566 6.349 7.145 7.71 2.563.973 6.379-.865 6.289-3.944-.115-3.927-2.202-6.327-4.434-9.38-.884-1.208-1.762-2.421-2.635-3.637 5.609-6.281 11.609-12.268 17.886-17.877 3.55-3.171-.905-8.388-4.71-5.622"/>
            <mask id="iktshxjebd" fill="#fff">
                <use xlink:href="#st6ctq9w8c"/>
            </mask>
            <path fill="#000" d="M183.126 131.999c-.286 5.215-.666 10.423-.936 15.64-.17 3.276-.611 6.676-.828 10.049-.029.444-.373.803-.818.844-41.138 3.826-82.858 3.306-123.94-1.37.262-2.22-.5-4.509-.928-6.71l-1.54-7.932c-.825-4.246-7.883-3.317-7.606 1.026.17 2.69.34 5.38.512 8.07.092 1.458.062 2.975.253 4.429-9.372-1.171-18.743-2.37-28.101-3.646-.424-.058-.745-.404-.78-.83-.226-2.862-.727-5.74-1.03-8.527-.465-4.287-.89-8.578-1.287-12.871-.832-9.04-1.388-18.093-2.116-27.14-1.474-18.297-2.389-32.706-3.35-51.03-.026-.491-.05-.982-.074-1.473-.022-.511.385-.94.898-.945 21.76-.212 43.509-.972 65.272-1.14 23.238-.177 46.481.069 69.713.738 6.506.187 13.011.408 19.514.662 5.366.21 10.832.223 16.214.644.454.035.81.405.834.858.472 9.22.981 14.512 1.123 23.732.293 18.976.04 37.974-1 56.922M10.224 41.909c-.235-6.347-.531-16.641-1.456-22.886-.03-.206.006-.419.116-.596 1.21-1.946 3.432-3.416 5.72-4.308 4.64-1.809 10.314-1.61 15.25-1.895 12.446-.719 24.945-.836 37.416-.617 25.216.441 50.36 2.842 75.326 6.22 12.943 1.75 25.815 4.266 38.764 5.958.444.058.776.43.782.876.058 3.978.186 11.886.351 15.865.02.52-.4.954-.923.943-4.345-.09-8.707-.402-13.03-.543-5.762-.188-11.524-.349-17.288-.485-11.714-.275-23.429-.443-35.144-.503-23.435-.12-46.869.19-70.286.931-11.561.366-23.104.97-34.623 1.904-.513.042-.956-.35-.975-.864m184.33 8.55c-.48-8.099-3.522-31.289-3.711-32.222.007-2.353-1.264-4.64-4.131-5.262-13.587-2.947-27.678-4.583-41.468-6.45-13.502-1.83-27.048-3.38-40.635-4.497-18.895-1.556-66.17-2.454-82.074.14-6.28 1.024-13.44 2.909-17.392 7.89-2.967 3.737-4.24 8.769-2.436 13.152.061.148.083.31.058.468-1.2 7.735-1.483 15.68-1.973 23.392-.549 8.618-.824 17.25-.788 25.886.074 17.889.769 35.714 2.275 53.557.44 5.213.928 10.424 1.457 15.63.536 5.272.507 11.13 2.407 16.155 1.257 3.324 4.445 4.723 7.26 4.253.113-.018.228-.017.34.01 21.336 4.96 43.05 7.838 64.933 9.582 22.552 1.8 45.213 2.347 67.818 1.532 13.196-.477 26.363-1.415 39.491-2.71 3.595-.355 5.764-4.443 5.163-7.53-.022-.114-.024-.228-.001-.342.689-3.538 2.577-22.701 2.813-25.966.706-9.727 1.212-19.468 1.517-29.214.6-19.154.21-38.317-.923-57.455" mask="url(#iktshxjebd)"/>
            <path fill="#000" d="M33.927 22.647c-.247-.624-.609-1.214-1.084-1.736-1.376-1.514-3.747-2.11-5.768-1.665-4.079.9-6.093 5.261-4.04 8.727 1.259 2.123 3.723 3.38 6.277 3.158 2.612-.228 4.842-1.679 5.67-4.1.495-1.45.07-3.24-1.055-4.384M57.293 24.154c.053-3.834-3.93-6.965-7.935-5.987-4.453 1.087-6.08 6.377-3.157 9.654 1.424 1.596 3.924 2.199 6.024 1.74.195-.042.386-.097.577-.157 2.414-.653 4.456-2.764 4.491-5.25M76.815 23.667c-.618-2.115-2.418-3.925-4.711-4.464-2.332-.549-4.958-.168-6.699 1.506-1.169 1.124-1.737 2.447-1.576 4.024.145 1.418.923 2.929 2.318 3.643.208.108.416.21.625.307 2.071 1.68 5.309 1.636 7.58.128.904-.6 1.612-1.16 2.097-2.137.45-.91.657-2.01.366-3.007"/>
        </g>
        <g fill="#000">
            <path d="M39.39.526c-5.766-1.033-12.194.253-18.014.671-5.974.429-11.833 1.49-17.769 2.131-4.17.45-4.353 6.725 0 6.875 5.935.204 11.812.835 17.77.824l8.614-.015c3.13-.006 6.341.245 9.4-.542 4.538-1.166 4.943-9.058 0-9.944M33.674 19.693c-9.253-1.131-18.939-.11-28.233.312-5.192.236-5.174 8.048 0 8.348 9.29.54 18.966 1.686 28.233.67 5.807-.636 5.757-8.626 0-9.33M21.607 39.052c-6.018-.955-11.586-.808-17.583.252-4.41.78-3.317 8.093 1.045 8.006 5.111-.103 10.302.125 15.405.424 4.717.276 5.924-7.92 1.133-8.682" transform="translate(73 35.5) translate(122 99.5)"/>
        </g>
    </g>
</svg>
