<svg width="368" height="294" xmlns="http://www.w3.org/2000/svg">
 <style type="text/css">.st0{opacity:0.36;enable-background:new    ;}
	.st1{fill:none;stroke:#000000;stroke-width:3;stroke-miterlimit:10;}
	.st2{opacity:0.25;enable-background:new    ;}
	.st3{fill:#FFFFFF;}
	.st4{opacity:0.17;enable-background:new    ;}
	.st5{fill:#EAEAEA;enable-background:new    ;}
	.st6{fill:#F0503C;}
	.st7{opacity:0.17;fill:#1D242B;enable-background:new    ;}</style>

 <g>
  <title>background</title>
  <rect fill="none" id="canvas_background" height="296" width="370" y="-1" x="-1"/>
 </g>
 <g>
  <title>Layer 1</title>
  <g stroke="null" id="OBJECTS">
   <path stroke="null" id="svg_1" d="m106.67946,151.22666c0,0 -5.64453,-21.40785 7.45884,-67.69508c0,0 65.31529,-21.40785 134.86397,10.0289c0,0 12.90179,15.23622 4.03181,58.05191c0,0 -13.50656,13.88617 -18.34473,-34.3297c0,0 -15.52246,-2.31436 -21.36858,-9.06458c0,0 -43.74512,19.09349 -79.62821,3.27868c-0.20159,0 -5.24135,31.62961 -27.01311,39.72988z"/>
   <path stroke="null" id="svg_2" d="m106.67946,151.22666c0,0 -5.64453,-21.40785 7.45884,-67.69508c0,0 65.31529,-21.40785 134.86397,10.0289c0,0 12.90179,15.23622 4.03181,58.05191c0,0 -13.50656,13.88617 -18.34473,-34.3297c0,0 -15.52246,-2.31436 -21.36858,-9.06458c0,0 -43.74512,19.09349 -79.62821,3.27868c-0.20159,0 -5.24135,31.62961 -27.01311,39.72988z" class="st0"/>
   <path stroke="null" id="svg_3" d="m249.40546,150.84093c-0.80636,-0.57859 -1.20954,-1.35004 -1.41113,-2.31436c-4.43499,-1.54291 -9.47475,-15.42908 -10.07952,-36.06547c0,-2.1215 -0.20159,-4.43586 0,-6.75022c0,0 -27.81947,-24.68653 -106.43973,-6.75022c0,0 -7.25725,45.70865 -23.1829,45.32292c0,0.19286 0,0.38573 0,0.57859l-0.40318,1.15718c-0.20159,0.19286 -0.20159,0.38573 -0.40318,0.57859c0,0.38573 0,0.96432 0,1.35004c0.80636,8.29313 2.62068,16.58626 5.03976,24.49366c0.20159,0.96432 0.40318,2.31436 0.60477,3.27868c1.20954,4.43586 3.02386,8.48599 5.64453,12.34326c0.80636,1.35004 1.81431,2.70009 3.02386,3.85727l0,0c8.26521,9.64317 23.38449,19.09349 51.80873,20.25067l3.02386,0l0,0c1.00795,0 2.0159,0 2.82227,0l3.42704,0c0.80636,0 1.41113,0 2.0159,0l2.21749,-0.19286l2.62068,0.19286c0.80636,0 1.41113,0 2.21749,-0.19286l2.21749,-0.19286l2.0159,-0.19286l1.81431,-0.19286c3.02386,-0.38573 5.64453,-0.77145 8.26521,-1.35004l2.41908,-0.57859l2.0159,-0.38573c0.80636,-0.19286 1.61272,-0.38573 2.21749,-0.57859s1.41113,-0.38573 2.0159,-0.57859l2.21749,-0.77145l1.81431,-0.57859c2.0159,-0.77145 4.03181,-1.54291 5.64453,-2.31436c0.60477,-0.38573 1.20954,-0.57859 1.81431,-0.96432c1.61272,-0.77145 3.22545,-1.73577 4.83817,-2.70009l1.00795,-0.57859l1.00795,-0.77145c2.82227,-1.92863 5.44294,-4.05013 7.86203,-6.3645c0.60477,-0.57859 1.00795,-1.15718 1.61272,-1.73577l1.00795,-1.35004c1.61272,-1.92863 2.82227,-7.32881 3.62863,-10.60749c0.60477,-6.75022 1.81431,-13.30758 2.21749,-19.86494c0,-1.92863 0.20159,-3.85727 0.60477,-5.7859c-0.20159,-0.77145 -0.60477,-1.73577 -0.80636,-2.70009z" class="st1"/>
   <path stroke="null" id="svg_4" d="m254.64681,145.05503c-1.41113,0.38573 -2.82227,1.15718 -4.03181,2.1215l-0.20159,0.19286c-0.20159,0.19286 -0.40318,0.19286 -0.60477,0.38573l-2.21749,2.31436l-15.52246,16.97199l-2.21749,-2.50723l15.11928,-14.65763l5.03976,-4.82159c1.61272,-0.57859 3.22545,-0.57859 4.63658,0z"/>
   <path stroke="null" id="svg_5" d="m243.15616,190.76367c-0.40318,0.38573 -0.60477,0.77145 -1.00795,1.35004s-1.00795,1.15718 -1.61272,1.73577c-2.41908,2.50723 -5.03976,4.62872 -7.86203,6.55736l-1.20954,0.77145c-1.81431,1.15718 -3.83022,2.31436 -5.64453,3.27868l-1.81431,0.77145c-1.61272,0.77145 -3.22545,1.35004 -5.03976,2.1215l-0.80636,0.19286l-1.81431,0.57859c-0.60477,0.19286 -1.41113,0.38573 -2.21749,0.77145s-1.41113,0.38573 -2.0159,0.57859l-2.21749,0.57859c-0.60477,0.19286 -1.20954,0.38573 -2.0159,0.38573s-1.61272,0.38573 -2.41908,0.57859c-2.62068,0.57859 -5.44294,0.96432 -8.26521,1.35004l-1.81431,0.19286l-2.0159,0.19286l-2.21749,0.19286c-0.60477,0 -1.41113,0.19286 -2.21749,0.19286l-2.62068,0.19286l-2.21749,0.19286c-0.60477,0 -1.41113,0 -2.0159,0l-3.42704,0c-1.00795,0 -2.0159,0 -2.82227,0l0,0l-1.81431,0l-1.00795,0c-28.42425,-1.35004 -43.74512,-10.80036 -51.80873,-20.25067l0,0c-1.00795,-1.15718 -2.0159,-2.50723 -3.02386,-3.85727c3.02386,-1.73577 7.86203,-7.32881 7.05566,-24.3008c0,-0.96432 0.60477,-1.73577 1.61272,-1.73577c0.20159,0 0.20159,0 0.40318,0c6.45089,1.15718 12.90179,1.92863 19.35268,2.50723c18.34473,1.54291 47.97851,1.92863 87.08705,-3.47154c0.80636,-0.19286 1.81431,0.38573 2.0159,1.15718c0,0.19286 0,0.19286 0,0.38573c-0.40318,5.97877 -0.60477,23.72221 7.45884,26.80802z"/>
   <path stroke="null" id="svg_6" d="m240.53549,193.65663c-2.41908,2.50723 -5.03976,4.62872 -7.86203,6.55736l-1.20954,0.77145c-1.81431,1.15718 -3.83022,2.31436 -5.64453,3.27868l-1.81431,0.96432c-1.81431,0.77145 -3.62863,1.54291 -5.64453,2.31436l-1.81431,0.57859c-0.60477,0.19286 -1.41113,0.38573 -2.21749,0.77145l-2.0159,0.57859l-2.41908,0.57859c-0.60477,0.19286 -1.20954,0.38573 -2.0159,0.38573l-2.41908,0.57859c-2.62068,0.57859 -5.44294,0.96432 -8.26521,1.35004l-1.81431,0.19286l-2.0159,0.19286l-2.21749,0.19286c-0.60477,0 -1.41113,0.19286 -2.21749,0.19286l-2.62068,0.19286l-2.21749,0.19286c-0.60477,0 -1.41113,0 -2.0159,0l-3.42704,0c-1.00795,0 -2.0159,0 -2.82227,0l0,0l-1.81431,0l-1.00795,0c-28.42425,-1.35004 -43.74512,-10.80036 -51.80873,-20.25067l0,0l-0.40318,-0.77145c0.80636,-0.57859 1.61272,-1.15718 2.21749,-1.92863c4.2334,-4.243 6.45089,-11.95754 6.2493,-22.95076c14.51451,2.1215 29.02902,3.27868 43.74512,3.08582c19.55427,0 39.31013,-1.54291 58.6628,-4.243c-0.40318,9.45031 0.80636,23.14362 8.86998,27.19375z"/>
   <path stroke="null" id="svg_7" d="m218.96531,207.15707l-0.80636,0.19286l-1.81431,0.57859c-0.60477,0.19286 -1.41113,0.38573 -2.21749,0.77145s-1.41113,0.38573 -2.0159,0.57859l-2.21749,0.77145c-0.60477,0.19286 -1.20954,0.38573 -2.0159,0.38573s-1.61272,0.38573 -2.41908,0.57859c-2.62068,0.57859 -5.44294,0.96432 -8.26521,1.35004l-1.81431,0.19286l-2.0159,0.19286l-2.21749,0.19286c-0.60477,0 -1.41113,0.19286 -2.21749,0.19286l-2.62068,0.19286l-2.21749,0.19286c-0.60477,0 -1.41113,0 -2.0159,0l-3.42704,0c-1.00795,0 -2.0159,0 -2.82227,0l0,0l-1.81431,0l-1.00795,0c-28.42425,-1.35004 -43.74512,-10.80036 -51.80873,-20.25067l0,0c-1.00795,-1.15718 -2.0159,-2.50723 -3.02386,-3.85727c3.02386,-1.73577 7.86203,-7.32881 7.05566,-24.3008c0,-0.96432 0.60477,-1.73577 1.61272,-1.73577c0.20159,0 0.20159,0 0.40318,0c6.45089,1.15718 12.90179,1.92863 19.35268,2.50723c-0.60477,8.10027 -0.20159,16.3934 5.44294,24.68653c10.68429,15.23622 32.65764,19.09349 51.80873,17.55058c5.03976,-0.77145 10.07952,-1.15718 15.11928,-0.96432z" class="st2"/>
   <path stroke="null" id="svg_8" d="m107.68742,143.89785c0,0.57859 -0.20159,1.35004 -0.40318,1.92863c0,0.19286 -0.20159,0.19286 -0.20159,0.38573l19.15109,20.44353l2.21749,-2.50723l-20.76381,-20.25067z"/>
   <path stroke="null" id="svg_9" d="m247.59115,176.8775c0,0 -3.42704,9.64317 -6.85407,13.11472l2.62068,1.54291c2.41908,-4.82159 4.43499,-9.83604 6.04771,-14.85049l-1.81431,0.19286z"/>
   <circle stroke="null" id="svg_10" r="8.87172" cy="146.21221" cx="214.32873"/>
   <circle stroke="null" id="svg_11" r="1.92863" cy="145.05503" cx="211.70806" class="st3"/>
   <circle stroke="null" id="svg_12" r="8.87172" cy="146.98366" cx="148.81186"/>
   <circle stroke="null" id="svg_13" r="1.92863" cy="146.01934" cx="146.39277" class="st3"/>
   <ellipse stroke="null" id="svg_14" ry="12.34326" rx="54.22782" cy="168.19865" cx="180.86473"/>
   <path stroke="null" id="svg_15" d="m79.46476,80.06003c2.21749,16.97199 18.74791,28.92952 35.07673,36.25834c29.83538,13.30758 62.8962,18.32203 95.55385,14.07903c7.66044,-0.77145 14.91769,-2.70009 21.97335,-5.59304c6.2493,-3.08582 12.09542,-6.94309 17.33677,-11.37895c4.83817,-3.47154 9.27316,-7.71454 12.70019,-12.53613c6.04771,-9.45031 5.64453,-21.79357 1.00795,-31.82248s-13.10338,-18.12917 -22.17494,-24.87939s-19.35268,-12.34326 -30.64174,-13.11472c-7.86203,-0.38573 -15.72405,0.77145 -23.1829,3.27868c-13.70815,4.05013 -26.60993,10.0289 -38.50377,17.55058c-11.69224,7.32881 -23.98926,16.77912 -37.89899,15.42908c-7.66044,-0.77145 -14.31292,-4.62872 -21.16699,-7.52168c-1.41113,-0.77145 -3.02386,-1.15718 -4.63658,-1.15718c-5.44294,0.19286 -7.45884,6.94309 -7.66044,12.1504"/>
   <ellipse stroke="null" id="svg_16" ry="4.8" rx="2" cy="68.55411" cx="60.93417" class="st3" transform="matrix(0.4886767131567587,-1.8684614736557006,1.9113039955844482,0.47772286026477817,54.65270649191872,126.42437870805263) "/>
   <circle stroke="null" id="svg_17" r="2.83118" cy="51.51623" cx="229.35455" class="st3"/>
   <path stroke="null" id="svg_18" d="m240.00798,169.93442l1.381,26.4223l0,1.73577c0,0 8.87786,0.77145 13.02086,15.62194c2.36743,8.67886 1.381,13.88617 0,16.97199c-0.59186,1.54291 -1.57829,2.70009 -2.95929,3.66441c4.73486,5.20731 7.89143,11.76467 8.68057,18.51489c10.65343,-3.08582 30.382,-17.35771 16.76929,-49.56592c-12.23171,-29.50811 -36.89243,-33.36538 -36.89243,-33.36538z"/>
   <path stroke="null" id="svg_19" d="m240.00798,169.93442l1.381,26.4223c2.36743,1.35004 4.73486,2.50723 7.29957,3.47154c5.524,2.1215 11.44257,3.85727 15.58557,7.52168c4.143,3.85727 6.31314,9.25745 5.91857,14.85049c-0.59186,5.59304 -2.56471,10.80036 -5.72129,15.42908c-0.39457,0.77145 -0.98643,1.35004 -1.77557,1.73577c-1.57829,0.38573 -3.35386,-0.38573 -3.94571,-1.92863c-0.59186,-1.35004 -0.59186,-2.89295 -1.381,-4.243c-0.59186,-1.35004 -1.77557,-2.31436 -3.15657,-2.70009c-0.59186,1.54291 -1.57829,2.70009 -2.95929,3.66441c4.73486,5.20731 7.89143,11.76467 8.68057,18.51489c10.65343,-3.08582 30.382,-17.35771 16.76929,-49.56592c-12.03443,-29.31525 -36.69514,-33.17252 -36.69514,-33.17252z" class="st4"/>
   <path stroke="null" id="svg_20" d="m283.60812,247.6584c-7.69414,9.06458 -17.16386,16.58626 -28.01457,22.1793c-55.43729,-29.12239 -50.70243,-91.03157 -50.70243,-91.03157c20.12314,1.54291 39.45714,-7.71454 50.70243,-23.91507c0.59186,0.96432 1.18371,1.92863 1.97286,2.89295c11.63986,14.65763 29.79014,22.56503 48.72957,21.21498c0,0 2.95929,38.18697 -22.68786,68.6594z" class="st5"/>
   <path stroke="null" id="svg_21" d="m255.59355,263.47321c-40.44357,-22.95076 -44.98114,-64.41641 -45.17843,-79.07403c17.36114,-0.38573 33.73586,-7.71454 45.17843,-20.44353c11.44257,12.72899 27.81729,20.25067 45.17843,20.44353c-0.19729,14.65763 -4.73486,56.31614 -45.17843,79.07403z" class="st6"/>
   <path stroke="null" id="svg_22" d="m276.70312,212.94297c0,-1.15718 -0.78914,-1.92863 -1.97286,-1.92863l-12.62629,0c-1.18371,0 -1.97286,-0.77145 -1.97286,-1.92863l0,-12.34326c0,-1.15718 -0.78914,-1.92863 -1.97286,-1.92863l-5.12943,0c-1.18371,0 -1.97286,0.77145 -1.97286,1.92863l0,12.34326c0,1.15718 -0.78914,1.92863 -1.97286,1.92863l-12.62629,0c-1.18371,0 -1.97286,0.77145 -1.97286,1.92863l0,5.01445c0,1.15718 0.78914,1.92863 1.97286,1.92863l12.62629,0c1.18371,0 1.97286,0.77145 1.97286,1.92863l0,12.34326c0,1.15718 0.78914,1.92863 1.97286,1.92863l5.12943,0c1.18371,0 1.97286,-0.77145 1.97286,-1.92863l0,-12.34326c0,-1.15718 0.78914,-1.92863 1.97286,-1.92863l12.62629,0c1.18371,0 1.97286,-0.77145 1.97286,-1.92863l0,-5.01445z" class="st3"/>
   <path stroke="null" id="svg_23" d="m283.60812,247.6584c-7.69414,9.06458 -17.16386,16.58626 -28.01457,22.1793c-55.43729,-29.12239 -50.70243,-91.03157 -50.70243,-91.03157c20.12314,1.54291 39.45714,-7.71454 50.70243,-23.91507c0.59186,0.96432 1.18371,1.92863 1.97286,2.89295c-2.95929,4.82159 -6.51043,9.06458 -10.85071,12.72899c-5.12943,4.43586 -14.79643,6.55736 -17.953,12.34326c-14.40186,27.57948 18.54486,69.62372 35.51143,70.58804c6.905,0.19286 13.81,-1.73577 19.334,-5.7859z" class="st7"/>
  </g>
 </g>
</svg>