<svg xmlns="http://www.w3.org/2000/svg" xmlns:xlink="http://www.w3.org/1999/xlink" width="176" height="45" viewBox="0 0 176 45">
    <defs>
        <path id="9mpyndxpea" d="M0.015 0.158L4.528 0.158 4.528 13.207 0.015 13.207z"/>
        <path id="7wdb8so7yc" d="M0.269 0L25.571 0 25.571 25.484 0.269 25.484z"/>
        <path id="c8ri8sn3de" d="M0 43.391L357.143 43.391 357.143 0.281 0 0.281z"/>
    </defs>
    <g fill="none" fill-rule="evenodd">
        <g transform="translate(26.567 17.907)">
            <mask id="q8bpkp1zqd" fill="#fff">
                <use xlink:href="#7wdb8so7yc"/>
            </mask>
            <path fill="#1E3867" d="M25.571 0L0.269 0.001 0.269 25.484z" mask="url(#q8bpkp1zqd)"/>
        </g>
        <path fill="#F39200" d="M70.028 35.895L52.139 18.137 34.248 35.893z"/>
        <path fill="#4EC1E2" d="M69.995 17.907L69.995 0.281 52.138 17.907z"/>
        <path fill="#725198" d="M52.138 17.907L61.083 26.922 78.974 26.922 70.029 17.907z"/>
        <path fill="#D8422D" d="M61.083 9.209L52.138 0.281 52.138 18.138z"/>
        <path fill="#04A87D" d="M17.89 9.209L8.945 17.907 26.836 17.907z"/>
        <path fill="#F6DD00" d="M0 9.209L8.945 0.281 17.891 9.209 8.945 18.138z"/>
        <path fill="#000" d="M99.587 23.501L106.972 15.016 111.916 15.016 103.415 24.283 112.368 35.085 107.183 35.085 100.039 26.089 99.587 26.54 99.587 35.085 95.668 35.085 95.668 15.016 99.587 15.016z"/>
        <mask id="jop6ltoq0f" fill="#fff">
            <use xlink:href="#c8ri8sn3de"/>
        </mask>
        <path fill="#000" d="M114.298 35.085h3.677V22.057h-3.677v13.028zm1.838-20.73c1.206 0 2.201.992 2.201 2.196 0 1.203-.995 2.196-2.2 2.196-1.207 0-2.201-.993-2.201-2.196 0-1.204.994-2.197 2.2-2.197zM124.607 28.556c0 2.076 1.507 3.7 3.617 3.7 2.11 0 3.618-1.624 3.618-3.7s-1.507-3.67-3.618-3.67c-2.11 0-3.617 1.594-3.617 3.67zm6.873-15.405h3.678v21.934h-3.678V33.4c-1.326 1.896-3.075 2.107-4.01 2.107-4.009 0-6.661-3.13-6.661-6.951 0-3.852 2.622-6.92 6.48-6.92.996 0 2.955.18 4.191 2.106V13.15zM141.79 28.556c0 2.076 1.507 3.7 3.617 3.7 2.11 0 3.618-1.624 3.618-3.7s-1.507-3.67-3.618-3.67c-2.11 0-3.617 1.594-3.617 3.67zm6.873-15.405h3.678v21.934h-3.678V33.4c-1.327 1.896-3.075 2.107-4.01 2.107-4.009 0-6.662-3.13-6.662-6.951 0-3.852 2.623-6.92 6.482-6.92.994 0 2.954.18 4.19 2.106V13.15zM166.328 28.586c0-2.046-1.568-3.7-3.678-3.7s-3.677 1.654-3.677 3.7c0 1.986 1.537 3.67 3.677 3.67s3.678-1.684 3.678-3.67m1.598-5.115c1.296 1.173 2.2 2.979 2.2 5.115 0 2.106-.904 3.912-2.2 5.085-1.116 1.023-2.804 1.836-5.276 1.836-2.471 0-4.16-.813-5.275-1.836-1.296-1.173-2.2-2.979-2.2-5.085 0-2.136.904-3.942 2.2-5.115 1.115-1.023 2.804-1.836 5.275-1.836 2.472 0 4.16.813 5.276 1.836" mask="url(#jop6ltoq0f)"/>
    </g>
</svg>
