<svg xmlns="http://www.w3.org/2000/svg" xmlns:xlink="http://www.w3.org/1999/xlink" width="358" height="45" viewBox="0 0 358 45">
    <defs>
        <path id="9mpyndxpea" d="M0.015 0.158L4.528 0.158 4.528 13.207 0.015 13.207z"/>
        <path id="7wdb8so7yc" d="M0.269 0L25.571 0 25.571 25.484 0.269 25.484z"/>
        <path id="c8ri8sn3de" d="M0 43.391L357.143 43.391 357.143 0.281 0 0.281z"/>
    </defs>
    <g fill="none" fill-rule="evenodd">
        <path fill="#000" fill-rule="nonzero" d="M181 11L181 42 180 42 180 11z"/>
        <g transform="translate(0 .064)">
            <path fill="#000" d="M295.998 32.371h-.958v-7.997h1.096c.949 0 3.42.648 3.42 4.029 0 3.38-2.718 3.968-3.558 3.968m.217-10.518h-4.16v13.04h4.031c2.692 0 6.59-1.66 6.59-6.49s-4.21-6.55-6.461-6.55M308.213 32.886c-1.22 0-2.207-1.008-2.207-2.25 0-1.244.988-2.252 2.207-2.252 1.219 0 2.206 1.008 2.206 2.251 0 1.243-.987 2.251-2.206 2.251zm2.381-6.498v1.191l-.356-.4c-.362-.408-1.165-1.09-2.476-1.09-1.15 0-2.276.447-3.013 1.197-.483.492-1.293 1.592-1.293 3.428 0 1.263.37 2.23 1.2 3.134.834.897 1.846 1.352 3.008 1.352.64 0 1.821-.155 2.56-1.192l.37-.52v1.413h2.457v-8.513h-2.457zM325.498 32.886c-1.22 0-2.207-1.008-2.207-2.25 0-1.244.988-2.252 2.207-2.252 1.219 0 2.207 1.008 2.207 2.251 0 1.243-.988 2.251-2.207 2.251zm2.381-6.498v1.191l-.356-.4c-.362-.408-1.165-1.09-2.476-1.09-1.15 0-2.276.447-3.012 1.197-.483.492-1.294 1.592-1.294 3.428 0 1.263.37 2.23 1.2 3.134.834.897 1.847 1.352 3.008 1.352.64 0 1.821-.155 2.56-1.192l.37-.52v1.413h2.456v-8.513h-2.456zM315.686 21.857L315.686 26.389 314.686 26.389 314.686 28.592 315.686 28.592 315.686 34.901 318.415 34.901 318.415 28.592 320.2 28.592 320.2 26.389 318.415 26.389 318.415 21.857z"/>
            <g transform="translate(352.615 21.696)">
                <mask id="mo4rfniaob" fill="#fff">
                    <use xlink:href="#9mpyndxpea"/>
                </mask>
                <path fill="#000" d="M0.015 0.158L0.015 13.207 2.744 13.207 2.744 6.897 4.528 6.897 4.528 4.694 2.744 4.694 2.744 0.158z" mask="url(#mo4rfniaob)"/>
            </g>
            <path fill="#000" d="M341.56 34.892h3.108l-4.819-13.038h-3.397l-4.915 13.038h3.072l.901-2.283h5.228l.822 2.283zm-1.55-4.418h-3.735l1.842-5.55 1.893 5.55zM345.66 34.902h2.729v-3.61c0-.364 0-1.47.77-2.186.388-.36.902-.534 1.571-.534.462 0 .968.01 1.15.015v-2.19l-.543-.03c-.528 0-1.026 0-1.41.211-.49.25-.888.65-1.153 1.154l-.385.735v-2.078h-2.73v8.513zM193.29 27.995h1.2c1.73 0 2.773-.864 2.773-2.375 0-2.08-1.947-2.278-2.891-2.278h-1.082v4.653zm.925-6.027c1.317 0 2.419.157 3.304.923.964.824 1.2 1.983 1.2 2.807 0 1.845-1.16 3.671-4.15 3.671h-1.279v5.694h-1.456V21.968h2.38zM201.255 31.019c0 2.002 1.416 3.023 2.872 3.023 1.475 0 2.871-1.04 2.871-3.023 0-2.003-1.377-3.043-2.871-3.043-1.495 0-2.872 1.06-2.872 3.043m-1.455 0c0-2.474 1.829-4.3 4.327-4.3 2.497 0 4.326 1.826 4.326 4.3 0 2.473-1.848 4.28-4.326 4.28-2.479 0-4.327-1.807-4.327-4.28M211.009 26.915L213.428 32.452 215.985 26.287 218.522 32.452 220.961 26.915 222.535 26.915 218.483 35.632 215.965 29.546 213.448 35.632 209.435 26.915zM229.87 30.096c-.237-1.276-1.2-2.12-2.4-2.12s-2.183.903-2.4 2.12h4.8zm1.396 2.886c-.236.451-.59.942-1.003 1.315-.747.668-1.672 1-2.715 1-1.966 0-4.031-1.235-4.031-4.259 0-2.434 1.494-4.319 3.953-4.319 1.593 0 2.596.786 3.088 1.492.512.727.807 1.983.767 3.063h-6.353c.02 1.688 1.18 2.768 2.596 2.768.67 0 1.2-.196 1.672-.59.374-.313.669-.725.846-1.118l1.18.648zM233.487 26.915h1.416v.884c.138-.216.748-1.08 1.85-1.08.432 0 .904.157 1.258.334l-.668 1.276c-.315-.216-.61-.275-.827-.275-.57 0-.924.236-1.14.51-.236.315-.473.864-.473 2.2v4.299h-1.416v-8.148zM244.678 30.096c-.236-1.276-1.2-2.12-2.4-2.12-1.199 0-2.183.903-2.399 2.12h4.8zm1.397 2.886c-.236.451-.59.942-1.003 1.315-.748.668-1.672 1-2.715 1-1.967 0-4.032-1.235-4.032-4.259 0-2.434 1.495-4.319 3.954-4.319 1.593 0 2.596.786 3.088 1.492.511.727.806 1.983.767 3.063h-6.353c.02 1.688 1.18 2.768 2.596 2.768.669 0 1.2-.196 1.672-.59.374-.313.668-.725.846-1.118l1.18.648zM249.24 30.98c0 1.746.984 3.062 2.675 3.062 1.731 0 2.714-1.433 2.714-3.043 0-2.1-1.455-3.023-2.714-3.023-1.396 0-2.675 1.02-2.675 3.003zm5.31-10.229h1.417v14.312h-1.416v-1.139c-.472.609-1.358 1.374-2.793 1.374-2.065 0-3.973-1.452-3.973-4.319 0-2.807 1.888-4.26 3.973-4.26 1.573 0 2.42.864 2.793 1.354v-7.322zM269.949 31.038c0-2.002-1.358-3.062-2.675-3.062-1.318 0-2.714 1.08-2.714 3.043 0 1.668 1.062 3.023 2.734 3.023 1.652 0 2.655-1.375 2.655-3.004zm-5.31 4.025h-1.417V20.75h1.416v7.303c.964-1.198 2.203-1.335 2.793-1.335 2.557 0 3.973 2.12 3.973 4.32 0 2.237-1.435 4.259-3.914 4.259-1.318 0-2.242-.589-2.852-1.374v1.139zM276.143 34.297L272.386 26.915 273.999 26.915 276.89 32.746 279.546 26.915 281.12 26.915 275.12 39.578 273.547 39.578z"/>
            <g transform="translate(26.567 17.907)">
                <mask id="q8bpkp1zqd" fill="#fff">
                    <use xlink:href="#7wdb8so7yc"/>
                </mask>
                <path fill="#1E3867" d="M25.571 0L0.269 0.001 0.269 25.484z" mask="url(#q8bpkp1zqd)"/>
            </g>
            <path fill="#F39200" d="M70.028 35.895L52.139 18.137 34.248 35.893z"/>
            <path fill="#4EC1E2" d="M69.995 17.907L69.995 0.281 52.138 17.907z"/>
            <path fill="#725198" d="M52.138 17.907L61.083 26.922 78.974 26.922 70.029 17.907z"/>
            <path fill="#D8422D" d="M61.083 9.209L52.138 0.281 52.138 18.138z"/>
            <path fill="#04A87D" d="M17.89 9.209L8.945 17.907 26.836 17.907z"/>
            <path fill="#F6DD00" d="M0 9.209L8.945 0.281 17.891 9.209 8.945 18.138z"/>
            <path fill="#000" d="M99.587 23.501L106.972 15.016 111.916 15.016 103.415 24.283 112.368 35.085 107.183 35.085 100.039 26.089 99.587 26.54 99.587 35.085 95.668 35.085 95.668 15.016 99.587 15.016z"/>
            <mask id="jop6ltoq0f" fill="#fff">
                <use xlink:href="#c8ri8sn3de"/>
            </mask>
            <path fill="#000" d="M114.298 35.085h3.677V22.057h-3.677v13.028zm1.838-20.73c1.206 0 2.201.992 2.201 2.196 0 1.203-.995 2.196-2.2 2.196-1.207 0-2.201-.993-2.201-2.196 0-1.204.994-2.197 2.2-2.197zM124.607 28.556c0 2.076 1.507 3.7 3.617 3.7 2.11 0 3.618-1.624 3.618-3.7s-1.507-3.67-3.618-3.67c-2.11 0-3.617 1.594-3.617 3.67zm6.873-15.405h3.678v21.934h-3.678V33.4c-1.326 1.896-3.075 2.107-4.01 2.107-4.009 0-6.661-3.13-6.661-6.951 0-3.852 2.622-6.92 6.48-6.92.996 0 2.955.18 4.191 2.106V13.15zM141.79 28.556c0 2.076 1.507 3.7 3.617 3.7 2.11 0 3.618-1.624 3.618-3.7s-1.507-3.67-3.618-3.67c-2.11 0-3.617 1.594-3.617 3.67zm6.873-15.405h3.678v21.934h-3.678V33.4c-1.327 1.896-3.075 2.107-4.01 2.107-4.009 0-6.662-3.13-6.662-6.951 0-3.852 2.623-6.92 6.482-6.92.994 0 2.954.18 4.19 2.106V13.15zM166.328 28.586c0-2.046-1.568-3.7-3.678-3.7s-3.677 1.654-3.677 3.7c0 1.986 1.537 3.67 3.677 3.67s3.678-1.684 3.678-3.67m1.598-5.115c1.296 1.173 2.2 2.979 2.2 5.115 0 2.106-.904 3.912-2.2 5.085-1.116 1.023-2.804 1.836-5.276 1.836-2.471 0-4.16-.813-5.275-1.836-1.296-1.173-2.2-2.979-2.2-5.085 0-2.136.904-3.942 2.2-5.115 1.115-1.023 2.804-1.836 5.275-1.836 2.472 0 4.16.813 5.276 1.836" mask="url(#jop6ltoq0f)"/>
        </g>
    </g>
</svg>
