<?xml version="1.0" encoding="utf-8"?>
<!-- Generator: Adobe Illustrator 25.0.1, SVG Export Plug-In . SVG Version: 6.00 Build 0)  -->
<svg version="1.1" id="Layer_1" xmlns="http://www.w3.org/2000/svg" xmlns:xlink="http://www.w3.org/1999/xlink" x="0px" y="0px"
	 viewBox="0 0 176 45" style="enable-background:new 0 0 176 45;" xml:space="preserve">
<style type="text/css">
	.st0{fill:#FFDE55;}
	.st1{fill:#2BC6BF;}
	.st2{fill:#F0503C;}
	.st3{fill:#53CFF8;}
	.st4{fill:#70529F;}
	.st5{fill:#284086;}
	.st6{fill:#FFB133;}
	.st7{display:none;}
	.st8{display:inline;fill-rule:evenodd;clip-rule:evenodd;}
	.st9{fill-rule:evenodd;clip-rule:evenodd;fill:url(#path-2_2_);}
	.st10{fill-rule:evenodd;clip-rule:evenodd;fill:url(#path-5_4_);}
	.st11{fill-rule:evenodd;clip-rule:evenodd;fill:url(#path-5_5_);}
	.st12{fill-rule:evenodd;clip-rule:evenodd;fill:url(#path-8_2_);}
	.st13{fill-rule:evenodd;clip-rule:evenodd;fill:url(#path-10_2_);}
	.st14{fill:none;stroke:#009870;stroke-linecap:round;}
</style>
<g>
	<g>
		
			<rect x="2.6" y="3.6" transform="matrix(-0.7071 0.7071 -0.7071 -0.7071 22.2233 10.5413)" class="st0" width="12.6" height="12.6"/>
		<polygon class="st1" points="8.9,18.8 17.9,9.9 26.8,18.8 		"/>
		<polygon class="st2" points="52,0.9 61,9.9 52,18.8 		"/>
		<polygon class="st3" points="52,18.8 69.9,0.9 69.9,18.8 		"/>
		<polygon class="st4" points="69.9,18.8 78.8,27.7 61,27.7 52,18.8 		"/>
		<polygon class="st5" points="52,18.8 26.8,18.8 26.8,44.1 		"/>
		<polygon class="st6" points="69.9,36.7 52,18.8 34.2,36.7 		"/>
	</g>
	<g>
		<path d="M99.5,24l0.9,0l6.4-8.3h4.9l-7.9,9.5l8.3,10.6h-5.2l-6.5-8.7l-1.1,0v8.7h-3.9V15.7h3.9V24z"/>
		<path d="M116,15c1.2,0,2.2,1,2.2,2.2c0,1.2-1,2.2-2.2,2.2c-1.2,0-2.2-1-2.2-2.2C113.8,16,114.8,15,116,15z M117.9,22.7v13h-3.7
			v-13H117.9z"/>
		<path d="M131.4,13.8h3.7v22h-3.7v-1.7c-1.3,1.9-3.1,2.1-4,2.1c-4,0-6.7-3.1-6.7-7c0-3.9,2.6-6.9,6.5-6.9c1,0,3,0.2,4.2,2.1V13.8z
			 M124.5,29.2c0,2.1,1.5,3.7,3.6,3.7c2.1,0,3.6-1.6,3.6-3.7c0-2.1-1.5-3.7-3.6-3.7C126,25.5,124.5,27.1,124.5,29.2z"/>
		<path d="M148.6,13.8h3.7v22h-3.7v-1.7c-1.3,1.9-3.1,2.1-4,2.1c-4,0-6.7-3.1-6.7-7c0-3.9,2.6-6.9,6.5-6.9c1,0,3,0.2,4.2,2.1V13.8z
			 M141.7,29.2c0,2.1,1.5,3.7,3.6,3.7c2.1,0,3.6-1.6,3.6-3.7c0-2.1-1.5-3.7-3.6-3.7C143.2,25.5,141.7,27.1,141.7,29.2z"/>
		<path d="M167.8,24.1c1.3,1.2,2.2,3,2.2,5.1c0,2.1-0.9,3.9-2.2,5.1c-1.1,1-2.8,1.8-5.3,1.8c-2.5,0-4.2-0.8-5.3-1.8
			c-1.3-1.2-2.2-3-2.2-5.1c0-2.1,0.9-3.9,2.2-5.1c1.1-1,2.8-1.8,5.3-1.8C165,22.3,166.7,23.1,167.8,24.1z M166.2,29.2
			c0-2-1.6-3.7-3.7-3.7c-2.1,0-3.7,1.7-3.7,3.7c0,2,1.5,3.7,3.7,3.7C164.7,32.9,166.2,31.2,166.2,29.2z"/>
	</g>
</g>
<g>
	<g id="Oval" transform="translate(41.000000, 8.500000) rotate(31.000000) translate(-41.000000, -8.500000) ">
		<g class="st7">
			<path id="path-2" class="st8" d="M39.7,16.8c1.7,0,3-1.2,3-3.6s-1.3-5.4-3-5.4c-1.7,0-3,3-3,5.4C36.7,15.6,38,16.8,39.7,16.8z"/>
		</g>
		<g>
			
				<radialGradient id="path-2_2_" cx="17.7509" cy="244.1772" r="0.4565" gradientTransform="matrix(2.949 5.143 4.9079 -3.0902 -1211.076 677.0432)" gradientUnits="userSpaceOnUse">
				<stop  offset="0" style="stop-color:#FFA294"/>
				<stop  offset="1" style="stop-color:#EA5641"/>
			</radialGradient>
			<path id="path-2_1_" class="st9" d="M39.7,16.8c1.7,0,3-1.2,3-3.6s-1.3-5.4-3-5.4c-1.7,0-3,3-3,5.4C36.7,15.6,38,16.8,39.7,16.8z
				"/>
		</g>
	</g>
	<g id="Oval-Copy-3" transform="translate(21.000000, 4.500000) rotate(-18.000000) translate(-21.000000, -4.500000) ">
		<g class="st7">
			<path id="path-5" class="st8" d="M35.2,33.2c-0.3-1.6-1.7-2.8-4-2.4c-2.4,0.4-5.1,2.2-4.9,3.8s3.4,2.5,5.8,2.1
				S35.5,34.8,35.2,33.2z"/>
		</g>
		<g>
			
				<radialGradient id="path-5_4_" cx="-127.8961" cy="145.4621" r="0.4539" gradientTransform="matrix(5.9135 0.8507 0.9754 -5.6692 646.7073 967.0991)" gradientUnits="userSpaceOnUse">
				<stop  offset="0" style="stop-color:#47D6FE"/>
				<stop  offset="1" style="stop-color:#28B8E0"/>
			</radialGradient>
			<path id="path-5_1_" class="st10" d="M35.2,33.2c-0.3-1.6-1.7-2.8-4-2.4c-2.4,0.4-5.1,2.2-4.9,3.8s3.4,2.5,5.8,2.1
				S35.5,34.8,35.2,33.2z"/>
		</g>
	</g>
	<g id="Oval-Copy-3_1_" transform="translate(21.000000, 4.500000) rotate(-18.000000) translate(-21.000000, -4.500000) ">
		<g class="st7">
			<path id="path-5_3_" class="st8" d="M50.3,23.6c1.6-0.2,2.9-1.5,2.7-3.9c-0.2-2.4-1.8-5.3-3.5-5.1c-1.6,0.2-2.7,3.3-2.5,5.7
				C47.2,22.6,48.6,23.7,50.3,23.6z"/>
		</g>
		<g>
			
				<radialGradient id="path-5_5_" cx="-126.3124" cy="148.9648" r="0.4539" gradientTransform="matrix(-1.2312 5.8461 5.5943 1.3398 -938.8793 559.4091)" gradientUnits="userSpaceOnUse">
				<stop  offset="0" style="stop-color:#47D6FE"/>
				<stop  offset="1" style="stop-color:#28B8E0"/>
			</radialGradient>
			<path id="path-5_2_" class="st11" d="M50.3,23.6c1.6-0.2,2.9-1.5,2.7-3.9c-0.2-2.4-1.8-5.3-3.5-5.1c-1.6,0.2-2.7,3.3-2.5,5.7
				C47.2,22.6,48.6,23.7,50.3,23.6z"/>
		</g>
	</g>
	<g id="Oval-Copy-4" transform="translate(15.000000, 43.500000) rotate(-143.000000) translate(-15.000000, -43.500000) ">
		<g class="st7">
			<path id="path-8" class="st8" d="M-11.1,104.8c-0.3-1.6-1.8-2.7-4.1-2.3c-2.3,0.4-5.1,2.3-4.7,4c0.3,1.6,3.5,2.4,5.9,1.9
				C-11.7,107.9-10.8,106.4-11.1,104.8z"/>
		</g>
		<g>
			
				<radialGradient id="path-8_2_" cx="47.773" cy="-106.507" r="0.4539" gradientTransform="matrix(-4.064 4.28 4.4013 3.818 648.8968 307.4978)" gradientUnits="userSpaceOnUse">
				<stop  offset="0" style="stop-color:#FFF7AE"/>
				<stop  offset="1" style="stop-color:#FCE72F"/>
			</radialGradient>
			<path id="path-8_1_" class="st12" d="M-11.1,104.8c-0.3-1.6-1.8-2.7-4.1-2.3c-2.3,0.4-5.1,2.3-4.7,4c0.3,1.6,3.5,2.4,5.9,1.9
				C-11.7,107.9-10.8,106.4-11.1,104.8z"/>
		</g>
	</g>
	<g id="Oval-Copy-5" transform="translate(41.000000, 22.500000) rotate(131.000000) translate(-41.000000, -22.500000) ">
		<g class="st7">
			<path id="path-10" class="st8" d="M45,2.1c-0.5-1.6-2-2.5-4.3-1.9S35.9,3,36.3,4.6c0.5,1.6,3.7,2.1,6,1.4
				C44.6,5.4,45.4,3.7,45,2.1z"/>
		</g>
		<g>
			
				<radialGradient id="path-10_2_" cx="274.197" cy="59.0412" r="0.4539" gradientTransform="matrix(-4.976 -3.0672 -3.3159 4.8601 1602.2434 557.0468)" gradientUnits="userSpaceOnUse">
				<stop  offset="0" style="stop-color:#FFF7AE"/>
				<stop  offset="1" style="stop-color:#FCE72F"/>
			</radialGradient>
			<path id="path-10_1_" class="st13" d="M45,2.1c-0.5-1.6-2-2.5-4.3-1.9S35.9,3,36.3,4.6c0.5,1.6,3.7,2.1,6,1.4
				C44.6,5.4,45.4,3.7,45,2.1z"/>
		</g>
	</g>
	<path class="st14" d="M29.5,19c-0.8-1.8,0.6-4,2.5-4.4s3.9,0.4,5.3,1.7s2.3,3.1,3.2,4.8c2.2,4.1,4.6,8.2,7.2,12.1
		c1.8,2.7,3.9,5.5,7,6.7c3.1,1.2,7.2,0,8.1-3.2"/>
	<path class="st14" d="M49.2,18.6c-0.9-0.9-0.6-2.6,0.4-3.4s2.3-1.2,3.5-1.4c5-0.7,10.2-0.1,15.2-0.9c1.8-0.3,3.6-0.9,4.6-2.4
		c0.8-1.2,0.8-2.8,0.1-4.1c-0.7-1.3-1.9-2.2-3.3-2.7"/>
</g>
</svg>
