<svg xmlns="http://www.w3.org/2000/svg" xmlns:xlink="http://www.w3.org/1999/xlink" width="368" height="296" viewBox="0 0 368 296">
    <defs>
        <path id="5ych015vua" d="M0 0.488L305.375 0.488 305.375 213 0 213z"/>
    </defs>
    <g fill="none" fill-rule="evenodd">
        <g fill="#F0503C">
            <path d="M18.896 11.64C15.972 8.813 11.142 6.983 7.198 6.55c-3.591-.394-5.143.783-6.343 4.26-1.99 5.765 2.146 18.8 10.09 15.161 1.57-.718 2.806-1.982 4.053-3.148 1.47-1.375 3.187-2.929 4.368-4.636 2.342-3.382-.098-6.19-.47-6.548M191.37.28c-4.28-.58-18.11 6.81-16.53 10.864 1.495 3.837 7.412 10.159 11.716 11.32 5.895 1.591 6.645-5.2 7.901-9.22 1.31-4.193 2.9-12.154-3.088-12.965" transform="translate(81 61)"/>
        </g>
        <g transform="translate(30 32)">
            <mask id="oq976h1l5b" fill="#fff">
                <use xlink:href="#5ych015vua"/>
            </mask>
            <path fill="#000" d="M220.537 194.941c-13.752 4.871-28.238 7.194-42.682 8.857-27.82 3.203-56.027 2.707-83.47-3.215-10.5-2.265-20.997-5.215-31.223-8.777 13.073-5.186 25.373-13.174 35.333-22.956 6.12 7.472 14.826 12.809 23.92 15.853 14.808 4.955 30.949 3.602 45.986.506 12.525-2.58 25.755-7.007 34.384-16.934 8.797 8.489 19.203 15.781 30.51 20.852-4.094 2.27-8.335 4.247-12.758 5.814m-20.862-38.737c-5.481 10.122-15.882 15.151-26.545 18.056-12.73 3.469-26.736 5.588-39.857 3.33-10.668-1.837-21.24-6.746-28.023-15.456-6.432-8.258-7.71-19.017-5.806-29.183.8-4.27 9.642-24.255 32.717-28.592 13.128-2.468 27.13-2.88 39.954 1.314 10.333 3.379 20.623 9.61 26.305 19.162 5.634 9.469 6.591 21.517 1.255 31.37M41.099 81.887c2.142-5.604 4.65-11.138 7.54-16.394.868-1.576.33-3.079-.726-3.995-5.666-9.448-14.128-24.815-3.657-34.01 5.23-4.594 12.889-2.887 18.9-1.087 6.68 2 13.072 5.103 19.002 8.756 1.569.966 3.035.583 3.987-.386 15.644-7.81 34.17-10.627 51.418-11.94 1.328-.101 2.201-.878 2.638-1.844.048-.069.1-.127.145-.202 1.96-3.311 3.246-6.812 6.055-9.594 1.195-1.184 3.139-2.989 4.267-.706.92 1.86-.39 4.582-1.055 6.327-.803 2.109.974 3.822 2.032 4.17.92.302 3.04.02 4.07-1.255 3.705-4.584 10.6-12.404 12.834-11.691 3.603 1.15.725 7.518-1.006 11.034-.986 2.005.166 5.018 2.762 4.824 16.463-1.225 32.552 1.046 47.744 7.663.465.202.92.288 1.355.285.629.351 1.387.409 2.037-.075 4.959-3.683 9.943-7.308 15.46-10.125 2.866-1.464 5.855-2.644 8.94-3.556 2.445-.723 7.38-2.645 9.335-.137 1.65 2.118.579 6.39.23 8.733-.534 3.6-1.195 7.185-2.016 10.729-1.644 7.088-3.821 14.037-6.39 20.841-.308.812-.264 1.524.005 2.103.077.344.23.688.478 1.02 5.366 7.157 9.763 14.955 13.265 23.189 1.022 2.405 1.929 4.862 2.749 7.347-1.05-1.09-2.107-2.171-3.174-3.237-5.428-5.422-11.245-10.478-17.09-15.44-5.425-4.607-28.55-21.837-51.199-13.05-14.06 5.457-19.611 20.63-18.826 35.048.012.202.133.363.22.518-10.42-3.184-21.835-3.63-32.6-2.209-.08.002-.161.007-.242.008 4.573-13.183-5.85-26.604-18.784-30.587-16.669-5.132-35.63 1.826-51.037 8.137-11.55 4.73-22.433 10.736-32.126 18.442.73-2.573 1.498-5.139 2.46-7.654m264.268 81.281c-1.199-24.032-16.96-42.27-32.212-60.514-1.092-7.124-3.66-14.404-6.2-20.714-3.388-8.417-8.039-16.111-13.532-23.292 3.148-8.547 5.594-17.31 7.403-26.242 1.265-6.238 4.049-15.937-2.333-20.42-6.053-4.25-15.236-.324-21.199 2.267-6.32 2.748-12.11 6.584-16.622 11.745-14.406-6.038-30.158-9.266-45.805-8.758 1.195-5.176.967-9.98-1.64-14.913-.8-1.513-3.196-2.185-4.762-1.668-5.045 1.668-8.36 5.545-11.952 9.018-.141-.609-.349-1.21-.644-1.8-1.372-2.744-4.065-4.598-7.183-4.222-5.385.65-10.882 7.678-12.804 13.124-8.707.773-17.314 2.102-25.774 4.36-8.384 2.237-16.572 5.066-24.831 7.698-7.195-5.007-15.284-8.527-23.887-10.3-7.584-1.562-15.885-1.39-21.805 4.268-12.356 11.81-4.977 29.582 2.04 42.04-4.617 8.974-8.352 19.42-8.718 29.592-1.349 1.236-2.676 2.503-3.968 3.818-11.427 11.635-20.505 25.715-25.842 41.17-2.63 7.614-5.646 18.228.547 25.005 2.676 2.93 6.448 4.406 10 4.083-.247 4.516 1.368 9.018 5.591 11.497 2.685 1.577 5.896 2.001 8.81 1.321-.032 3.507 1.32 7.035 3.941 9.712 6.023 6.154 15.495 5.87 23.138 3.576.414-.125.825-.266 1.238-.396 23.48 11.582 49.404 16.611 75.541 18.177 14.637.877 29.417.772 44.046-.188 15.348-1.008 31.237-2.533 45.775-7.875 7.428-2.73 15.04-6.46 21.657-11.375 3.824 1.2 7.72 2.137 11.668 2.77 7.613 1.22 17.34.618 20.864-7.52 1.508-3.484 1.443-6.719.466-9.73 2.535.86 6.004.682 8.25-.97 3.53-2.595 3.367-6.874 2.506-11.467 3.966 2.308 7.024 3.92 11.801 4.053 4.37.12 6.592-3.707 6.43-6.93" mask="url(#oq976h1l5b)"/>
        </g>
        <path fill="#000" d="M186.859 145.517c-.227-.22-.519-.395-.897-.489l-.045-.01c-1.545-.742-3.206-1.203-4.697-1.441-3.836-.61-11.038-1.194-14.476 2.423-3.713 2.31-5.312 7.448-2.29 11.543 5 6.782 27.149 8.149 26.978-4.64-.049-3.576-2.053-5.916-4.573-7.386M193.621 171.845c-.276-.328-.745-.501-1.175-.219-1.959 1.29-3.881 2.442-6.11 3.27-2.142.793-4.406 1.298-6.698 1.442-4.848.303-9.543-.895-13.742-3.172-.824-.446-1.812.132-1.953.875-.622 3.29.393 6.988 1.96 9.917 1.594 2.975 4.19 5.464 7.392 6.828 3.14 1.336 6.77 1.71 10.09.763 3.403-.971 6.14-3.39 7.828-6.34 2.229-3.895 2.662-8.364 2.697-12.725.003-.291-.116-.501-.289-.64"/>
        <path fill="#FFF" d="M144.931 117.774c-1.2-5.542-6.007-8.767-11.674-9.703-5.424-.897-11.641 2.901-13.593 6.048-3.185 5.137-1.994 12.084 2.433 16.078 9.302 8.393 25.614.415 22.834-12.423"/>
        <path fill="#000" d="M137.687 121.969c0 3.097-3.469 5.028-6.558 5.028-3.09 0-5.595-2.511-5.595-5.608 0-3.098 3.47-5.996 6.559-5.996 3.09 0 5.594 3.478 5.594 6.576"/>
        <path fill="#FFF" d="M222.108 117.774c1.2-5.542 6.007-8.767 11.674-9.703 5.425-.897 11.642 2.901 13.594 6.048 3.184 5.137 1.994 12.084-2.434 16.078-9.302 8.393-25.614.415-22.834-12.423"/>
        <path fill="#000" d="M229.352 121.969c0 3.097 3.47 5.028 6.559 5.028 3.09 0 5.594-2.511 5.594-5.608 0-3.098-3.469-5.996-6.558-5.996-3.09 0-5.595 3.478-5.595 6.576"/>
        <path d="M0 0H368V296H0z"/>
    </g>
</svg>
